<svg width="200" height="120" viewBox="0 0 200 120" xmlns="http://www.w3.org/2000/svg">
  <defs>
    <linearGradient id="bg" x1="0%" y1="0%" x2="100%" y2="100%">
      <stop offset="0%" style="stop-color:#0b1220;stop-opacity:1" />
      <stop offset="100%" style="stop-color:#0b0f16;stop-opacity:1" />
    </linearGradient>
  </defs>

  <!-- Background -->
  <rect width="200" height="120" fill="url(#bg)" rx="12"/>

  <!-- Game area border -->
  <rect x="50" y="20" width="100" height="80" fill="none" stroke="#1f2937" stroke-width="2" rx="4"/>

  <!-- Tetris pieces -->
  <!-- I piece (cyan) -->
  <rect x="60" y="30" width="20" height="20" fill="#00f5ff" stroke="rgba(255,255,255,0.3)" stroke-width="1"/>
  <rect x="80" y="30" width="20" height="20" fill="#00f5ff" stroke="rgba(255,255,255,0.3)" stroke-width="1"/>
  <rect x="100" y="30" width="20" height="20" fill="#00f5ff" stroke="rgba(255,255,255,0.3)" stroke-width="1"/>
  <rect x="120" y="30" width="20" height="20" fill="#00f5ff" stroke="rgba(255,255,255,0.3)" stroke-width="1"/>

  <!-- O piece (yellow) -->
  <rect x="60" y="60" width="20" height="20" fill="#ffff00" stroke="rgba(255,255,255,0.3)" stroke-width="1"/>
  <rect x="80" y="60" width="20" height="20" fill="#ffff00" stroke="rgba(255,255,255,0.3)" stroke-width="1"/>
  <rect x="60" y="80" width="20" height="20" fill="#ffff00" stroke="rgba(255,255,255,0.3)" stroke-width="1"/>
  <rect x="80" y="80" width="20" height="20" fill="#ffff00" stroke="rgba(255,255,255,0.3)" stroke-width="1"/>

  <!-- T piece (purple) -->
  <rect x="100" y="60" width="20" height="20" fill="#a000f0" stroke="rgba(255,255,255,0.3)" stroke-width="1"/>
  <rect x="80" y="80" width="20" height="20" fill="#a000f0" stroke="rgba(255,255,255,0.3)" stroke-width="1"/>
  <rect x="100" y="80" width="20" height="20" fill="#a000f0" stroke="rgba(255,255,255,0.3)" stroke-width="1"/>
  <rect x="120" y="80" width="20" height="20" fill="#a000f0" stroke="rgba(255,255,255,0.3)" stroke-width="1"/>

  <!-- Title -->
  <text x="100" y="15" text-anchor="middle" fill="#e5e7eb" font-family="system-ui, sans-serif" font-size="12" font-weight="bold">TETRIS</text>
</svg>
