<svg width="200" height="150" viewBox="0 0 200 150" xmlns="http://www.w3.org/2000/svg">
  <defs>
    <linearGradient id="spaceGrad" x1="0%" y1="0%" x2="0%" y2="100%">
      <stop offset="0%" style="stop-color:#000428;stop-opacity:1" />
      <stop offset="100%" style="stop-color:#004e92;stop-opacity:1" />
    </linearGradient>
    <filter id="glow">
      <feGaussianBlur stdDeviation="3" result="coloredBlur"/>
      <feMerge>
        <feMergeNode in="coloredBlur"/>
        <feMergeNode in="SourceGraphic"/>
      </feMerge>
    </filter>
  </defs>

  <!-- Background -->
  <rect width="200" height="150" fill="url(#spaceGrad)"/>

  <!-- Stars -->
  <circle cx="30" cy="20" r="1" fill="white"/>
  <circle cx="80" cy="15" r="1" fill="white"/>
  <circle cx="150" cy="25" r="1" fill="white"/>
  <circle cx="180" cy="40" r="1" fill="white"/>
  <circle cx="50" cy="60" r="1" fill="white"/>
  <circle cx="120" cy="70" r="1" fill="white"/>
  <circle cx="20" cy="90" r="1" fill="white"/>
  <circle cx="160" cy="100" r="1" fill="white"/>

  <!-- Monkey (player) -->
  <rect x="85" y="120" width="30" height="20" fill="#8B4513" filter="url(#glow)"/>
  <rect x="90" y="125" width="4" height="4" fill="black"/>
  <rect x="101" y="125" width="4" height="4" fill="black"/>
  <rect x="95" y="135" width="10" height="2" fill="black"/>

  <!-- Bananas -->
  <circle cx="50" cy="40" r="8" fill="#FFA500" filter="url(#glow)"/>
  <circle cx="120" cy="30" r="8" fill="#FFD700" filter="url(#glow)"/>
  <circle cx="80" cy="60" r="8" fill="#FFA500" filter="url(#glow)"/>
  <circle cx="150" cy="50" r="8" fill="#FFA500" filter="url(#glow)"/>
  <circle cx="30" cy="70" r="8" fill="#FFD700" filter="url(#glow)"/>

  <!-- Bullets -->
  <rect x="95" y="110" width="3" height="8" fill="#00ff00" filter="url(#glow)"/>
  <rect x="98" y="105" width="3" height="8" fill="#00ff00" filter="url(#glow)"/>

  <!-- Title -->
  <text x="100" y="25" text-anchor="middle" fill="#FFD700" font-family="Arial, sans-serif" font-size="16" font-weight="bold" filter="url(#glow)">BANANAGA</text>
</svg>
