<svg width="320" height="180" viewBox="0 0 320 180" xmlns="http://www.w3.org/2000/svg">
  <defs>
    <linearGradient id="bg" x1="0%" y1="0%" x2="0%" y2="100%">
      <stop offset="0%" style="stop-color:#2c1810;stop-opacity:1" />
      <stop offset="50%" style="stop-color:#4a2c1a;stop-opacity:1" />
      <stop offset="100%" style="stop-color:#1a1a1a;stop-opacity:1" />
    </linearGradient>
    <linearGradient id="panel" x1="0%" y1="0%" x2="0%" y2="100%">
      <stop offset="0%" style="stop-color:rgba(18, 24, 38, 0.92);stop-opacity:1" />
      <stop offset="100%" style="stop-color:rgba(12, 17, 29, 0.92);stop-opacity:1" />
    </linearGradient>
    <linearGradient id="dirt" x1="0%" y1="0%" x2="0%" y2="100%">
      <stop offset="0%" style="stop-color:#8b4513;stop-opacity:1" />
      <stop offset="100%" style="stop-color:#654321;stop-opacity:1" />
    </linearGradient>
    <linearGradient id="beer" x1="0%" y1="0%" x2="0%" y2="100%">
      <stop offset="0%" style="stop-color:#ffd700;stop-opacity:1" />
      <stop offset="100%" style="stop-color:#ffa500;stop-opacity:1" />
    </linearGradient>
  </defs>

  <!-- Background -->
  <rect width="320" height="180" fill="url(#bg)" rx="18"/>

  <!-- Underground tunnel system -->
  <g opacity="0.6">
    <!-- Main horizontal tunnel -->
    <rect x="20" y="80" width="280" height="20" fill="url(#dirt)" rx="2"/>

    <!-- Vertical tunnels -->
    <rect x="60" y="60" width="20" height="60" fill="url(#dirt)" rx="2"/>
    <rect x="120" y="40" width="20" height="80" fill="url(#dirt)" rx="2"/>
    <rect x="180" y="70" width="20" height="50" fill="url(#dirt)" rx="2"/>
    <rect x="240" y="50" width="20" height="70" fill="url(#dirt)" rx="2"/>

    <!-- Cross tunnels -->
    <rect x="50" y="70" width="40" height="20" fill="url(#dirt)" rx="2"/>
    <rect x="110" y="50" width="40" height="20" fill="url(#dirt)" rx="2"/>
    <rect x="170" y="60" width="40" height="20" fill="url(#dirt)" rx="2"/>
    <rect x="230" y="55" width="40" height="20" fill="url(#dirt)" rx="2"/>
  </g>

  <!-- Beer mugs scattered around -->
  <g>
    <!-- Beer mug 1 -->
    <rect x="70" y="75" width="8" height="10" fill="url(#beer)" rx="1"/>
    <rect x="69" y="74" width="10" height="2" fill="#8b4513" rx="1"/>
    <rect x="70" y="76" width="8" height="6" fill="#ffd700" rx="0.5"/>

    <!-- Beer mug 2 -->
    <rect x="130" y="55" width="8" height="10" fill="url(#beer)" rx="1"/>
    <rect x="129" y="54" width="10" height="2" fill="#8b4513" rx="1"/>
    <rect x="130" y="56" width="8" height="6" fill="#ffd700" rx="0.5"/>

    <!-- Beer mug 3 -->
    <rect x="190" y="75" width="8" height="10" fill="url(#beer)" rx="1"/>
    <rect x="189" y="74" width="10" height="2" fill="#8b4513" rx="1"/>
    <rect x="190" y="76" width="8" height="6" fill="#ffd700" rx="0.5"/>

    <!-- Beer mug 4 -->
    <rect x="250" y="65" width="8" height="10" fill="url(#beer)" rx="1"/>
    <rect x="249" y="64" width="10" height="2" fill="#8b4513" rx="1"/>
    <rect x="250" y="66" width="8" height="6" fill="#ffd700" rx="0.5"/>
  </g>

  <!-- Player character (digger) -->
  <g transform="translate(150, 75)">
    <!-- Character body -->
    <rect x="3" y="5" width="6" height="8" fill="#ffd700" rx="1"/>

    <!-- Character head -->
    <rect x="4" y="2" width="4" height="4" fill="#ffd700" rx="1"/>

    <!-- Character eyes -->
    <rect x="5" y="3" width="1" height="1" fill="#000"/>
    <rect x="6" y="3" width="1" height="1" fill="#000"/>

    <!-- Character mouth -->
    <rect x="5" y="5" width="2" height="1" fill="#000"/>

    <!-- Character arms -->
    <rect x="1" y="6" width="2" height="4" fill="#ffd700" rx="0.5"/>
    <rect x="9" y="6" width="2" height="4" fill="#ffd700" rx="0.5"/>

    <!-- Character legs -->
    <rect x="4" y="11" width="2" height="3" fill="#ffd700" rx="0.5"/>
    <rect x="6" y="11" width="2" height="3" fill="#ffd700" rx="0.5"/>
  </g>

  <!-- Enemies (drunkards) -->
  <g opacity="0.7">
    <!-- Drunkard 1 -->
    <g transform="translate(100, 75)">
      <rect x="3" y="5" width="6" height="8" fill="#ff6b6b" rx="1"/>
      <rect x="4" y="2" width="4" height="4" fill="#ff6b6b" rx="1"/>
      <rect x="5" y="3" width="1" height="1" fill="#000"/>
      <rect x="6" y="3" width="1" height="1" fill="#000"/>
    </g>

    <!-- Drunkard 2 -->
    <g transform="translate(220, 75)">
      <rect x="3" y="5" width="6" height="8" fill="#ff6b6b" rx="1"/>
      <rect x="4" y="2" width="4" height="4" fill="#ff6b6b" rx="1"/>
      <rect x="5" y="3" width="1" height="1" fill="#000"/>
      <rect x="6" y="3" width="1" height="1" fill="#000"/>
    </g>
  </g>

  <!-- Score display -->
  <rect x="0" y="0" width="320" height="40" fill="url(#panel)" rx="18"/>
  <text x="20" y="25" fill="#ffd700" font-family="Courier New, monospace" font-size="14" font-weight="700">Score: 1250</text>
  <text x="200" y="25" fill="#ffd700" font-family="Courier New, monospace" font-size="14" font-weight="700">Lives: 3</text>

  <!-- Title overlay -->
  <rect x="40" y="60" width="240" height="60" fill="url(#panel)" rx="16" stroke="#8b4513" stroke-width="1"/>
  <text x="160" y="85" text-anchor="middle" fill="#ffd700" font-family="Courier New, monospace" font-size="24" font-weight="700">🍺 GLUG GLUG</text>
  <text x="160" y="105" text-anchor="middle" fill="#ffa500" font-family="Courier New, monospace" font-size="12">Click to play</text>
</svg>
