<svg width="200" height="120" viewBox="0 0 200 120" xmlns="http://www.w3.org/2000/svg">
  <!-- Background gradient -->
  <defs>
    <linearGradient id="skyGradient" x1="0%" y1="0%" x2="0%" y2="100%">
      <stop offset="0%" style="stop-color:#87CEEB;stop-opacity:1" />
      <stop offset="100%" style="stop-color:#98FB98;stop-opacity:1" />
    </linearGradient>
    <linearGradient id="cloudGradient" x1="0%" y1="0%" x2="0%" y2="100%">
      <stop offset="0%" style="stop-color:#ffffff;stop-opacity:1" />
      <stop offset="100%" style="stop-color:#f0f0f0;stop-opacity:1" />
    </linearGradient>
  </defs>

  <!-- Sky background -->
  <rect width="200" height="120" fill="url(#skyGradient)"/>

  <!-- Ground -->
  <rect x="0" y="100" width="200" height="20" fill="#90EE90"/>

  <!-- Clouds -->
  <g fill="url(#cloudGradient)" stroke="#e0e0e0" stroke-width="1">
    <!-- Top cloud -->
    <rect x="20" y="10" width="60" height="30" rx="15" ry="15"/>
    <rect x="30" y="5" width="40" height="20" rx="10" ry="10"/>

    <!-- Middle cloud -->
    <rect x="80" y="25" width="50" height="25" rx="12" ry="12"/>
    <rect x="85" y="20" width="40" height="15" rx="7" ry="7"/>

    <!-- Bottom cloud -->
    <rect x="130" y="50" width="55" height="35" rx="17" ry="17"/>
    <rect x="140" y="45" width="35" height="20" rx="10" ry="10"/>
  </g>

  <!-- Sleeping animal (bird) -->
  <g transform="translate(60, 70)">
    <!-- Body -->
    <ellipse cx="0" cy="0" rx="12" ry="8" fill="#8B4513"/>

    <!-- Wings -->
    <ellipse cx="-4" cy="0" rx="6" ry="10" fill="#654321"/>
    <ellipse cx="4" cy="0" rx="6" ry="10" fill="#654321"/>

    <!-- Sleepy eyes -->
    <circle cx="-6" cy="-4" r="2" fill="#DDA0DD"/>
    <circle cx="6" cy="-4" r="2" fill="#DDA0DD"/>

    <!-- Closed eyes (sleeping) -->
    <line x1="-9" y1="-4" x2="-3" y2="-4" stroke="#8B4513" stroke-width="1.5"/>
    <line x1="3" y1="-4" x2="9" y2="-4" stroke="#8B4513" stroke-width="1.5"/>

    <!-- Z's for sleeping -->
    <g stroke="#DDA0DD" stroke-width="2" fill="none">
      <path d="M 12 -8 L 18 -8 L 15 -5 L 21 -5"/>
    </g>
  </g>

</svg>
